<?xml version="1.0" standalone="no"?>
<!DOCTYPE svg PUBLIC "-//W3C//DTD SVG 20010904//EN"
 "http://www.w3.org/TR/2001/REC-SVG-20010904/DTD/svg10.dtd">
<svg version="1.0" xmlns="http://www.w3.org/2000/svg"
 width="700.000000pt" height="700.000000pt" viewBox="0 0 700.000000 700.000000"
 preserveAspectRatio="xMidYMid meet">
<metadata>
Created by potrace 1.14, written by Peter Selinger 2001-2017
</metadata>
<g transform="translate(0.000000,700.000000) scale(0.100000,-0.100000)"
fill="#000000" stroke="none">
<path d="M2360 6413 c-305 -36 -548 -130 -773 -301 -86 -65 -224 -208 -290
-299 -123 -172 -219 -397 -251 -588 -3 -16 -9 -48 -13 -70 -12 -67 -8 -355 6
-430 41 -216 108 -392 212 -550 241 -369 613 -606 1044 -663 68 -9 317 -9 385
1 416 58 788 297 1027 658 34 51 135 249 127 249 -2 0 2 12 10 28 8 15 26 70
39 122 98 365 57 744 -115 1070 -38 71 -109 181 -132 206 -6 7 -27 31 -46 55
-210 262 -573 459 -930 505 -57 7 -257 12 -300 7z m340 -609 c85 -21 220 -84
289 -136 68 -50 169 -152 212 -214 64 -93 122 -239 144 -364 12 -64 7 -234 -9
-308 -47 -219 -180 -420 -362 -545 -90 -62 -225 -119 -314 -133 -19 -3 -51 -9
-70 -13 -96 -20 -294 3 -419 49 -191 69 -379 237 -471 420 -80 158 -112 361
-85 537 3 24 6 44 5 45 -4 8 65 186 87 226 149 272 427 450 718 461 44 2 81 4
83 5 4 5 128 -15 192 -30z"/>
<path d="M6645 4660 c-76 -17 -125 -61 -608 -544 l-494 -494 -214 212 c-202
200 -217 213 -273 230 -118 37 -219 14 -302 -68 -59 -60 -86 -127 -85 -212 1
-110 20 -135 358 -476 170 -170 327 -323 350 -339 82 -57 202 -65 296 -20 29
14 234 213 668 648 577 579 627 632 642 678 18 60 16 165 -6 215 -53 122 -205
200 -332 170z"/>
<path d="M1357 2915 c-1 -2 -31 -6 -66 -9 -530 -55 -1007 -427 -1198 -934 -30
-81 -69 -232 -80 -308 -4 -32 -8 -241 -8 -464 0 -371 2 -408 18 -441 77 -154
250 -216 401 -144 69 33 134 116 151 195 5 19 9 195 10 390 2 365 7 420 46
542 100 305 396 546 720 584 30 4 547 7 1149 6 1174 0 1155 1 1295 -50 189
-68 355 -206 456 -378 62 -105 89 -181 114 -314 4 -19 8 -201 9 -405 l2 -370
26 -56 c27 -60 84 -122 133 -144 160 -75 343 -3 404 159 17 47 19 81 18 424 0
205 -4 397 -8 425 -5 29 -11 70 -14 92 -12 80 -58 231 -100 327 -117 265 -303
484 -545 641 -118 76 -194 112 -329 157 -229 76 -169 73 -1454 75 -631 1
-1148 1 -1150 0z"/>
</g>
</svg>
